#N canvas 20 50 1657 947 10;
#X obj 222 35 osc/unpackOSC;
#X obj 725 660 mrpeach/udpsend;
#X obj 671 577 osc/packOSC;
#X msg 871 629 disconnect;
#X msg 717 606 connect 127.0.0.1 5008;
#X obj 674 398 metro 2000;
#X obj 675 379 tgl 15 0 empty empty empty 17 7 0 10 -262144 -1 -1 0
1;
#X msg 663 356 0;
#X obj 220 17 mrpeach/udpreceive 1068;
#X obj 202 63 osc/routeOSC /geoCoord /time /data /list;
#X obj 34 107 osc/routeOSC /latitude /longitude /nVector;
#X obj 201 193 print /geoCoord/nVector/n0;
#X obj 241 213 print /geoCoord/nVector/n1;
#X obj 291 233 print /geoCoord/nVector/n2;
#X obj 242 283 osc/routeOSC /unix /ymd /ywd /hms /zmd;
#X obj 242 306 print /time/unix;
#X obj 282 326 print /time/ymd;
#X obj 332 346 print /time/ywd;
#X obj 375 303 print /time/hms;
#X obj 422 324 print /time/zmd;
#X obj 34 128 print /geoCoord/latitude;
#X obj 113 149 print /geoCoord/longitude;
#X obj 563 302 print /list/step-count;
#X obj 627 322 print /list/end;
#X obj 332 140 print /data/ccs811CO2;
#X obj 372 160 print /data/ccs811TVOC;
#X obj 390 182 print /data/silTemperature;
#X obj 466 139 print /data/silHumidity;
#X obj 515 160 print /data/mplPressure;
#X obj 560 182 print /data/mplTemperature;
#X obj 613 139 print /data/soilMoisture;
#X obj 201 170 osc/routeOSC /n0 /n1 /n2;
#X obj 760 322 print /list/length;
#X obj 332 91 osc/routeOSC /ccsCO2 /ccsTVOC /silTemperature /silHumidity
/mplPressure /mplTemperature /soilMoisture;
#X msg 732 378 27;
#X obj 817 302 print /list/errors;
#X msg 1044 387 /fish/cat 14;
#X msg 674 421 /list/index step;
#X msg 708 475 /list/index/set 7;
#X msg 720 519 /list/index/insert 16;
#X obj 562 279 osc/routeOSC /step-count /end /name /length /errors
;
#X obj 702 301 print /list/name;
#X msg 893 423 /list/select 1;
#X connect 0 0 9 0;
#X connect 2 0 1 0;
#X connect 3 0 1 0;
#X connect 4 0 1 0;
#X connect 5 0 37 0;
#X connect 6 0 5 0;
#X connect 7 0 6 0;
#X connect 8 0 0 0;
#X connect 9 0 10 0;
#X connect 9 1 14 0;
#X connect 9 2 33 0;
#X connect 9 3 40 0;
#X connect 10 0 20 0;
#X connect 10 1 21 0;
#X connect 10 2 31 0;
#X connect 14 0 15 0;
#X connect 14 1 16 0;
#X connect 14 2 17 0;
#X connect 14 3 18 0;
#X connect 14 4 19 0;
#X connect 31 0 11 0;
#X connect 31 1 12 0;
#X connect 31 2 13 0;
#X connect 33 0 24 0;
#X connect 33 1 25 0;
#X connect 33 2 26 0;
#X connect 33 3 27 0;
#X connect 33 4 28 0;
#X connect 33 5 29 0;
#X connect 33 6 30 0;
#X connect 34 0 5 1;
#X connect 36 0 2 0;
#X connect 37 0 2 0;
#X connect 38 0 2 0;
#X connect 39 0 2 0;
#X connect 40 0 22 0;
#X connect 40 1 7 0;
#X connect 40 1 23 0;
#X connect 40 2 41 0;
#X connect 40 3 32 0;
#X connect 40 4 35 0;
#X connect 42 0 2 0;
